<svg width="24" height="24" viewBox="0 0 24 24" fill="none" xmlns="http://www.w3.org/2000/svg">
<path d="M4 19.5529V12.416C4 10.9933 5.06692 9.79671 6.48034 9.63428L11.6803 9.03673C11.8927 9.01232 12.1073 9.01232 12.3197 9.03673L13.2857 9.14774L13.9285 9.22161M6.5 21L11.437 22.1939C11.8084 22.2837 12.1942 22.2965 12.5708 22.2316L17.6756 21.3517C19.0187 21.1202 20 19.9553 20 18.5924V12.416C20 10.9933 18.9331 9.79671 17.5197 9.63428L17.1427 9.59097" stroke="#452EB2" stroke-width="1.5" stroke-linecap="round"/>
<circle cx="12" cy="14" r="1" fill="#452EB2" stroke="#452EB2" stroke-width="1.5"/>
<path d="M8 9V4.8C8 3.2536 9.2536 2 10.8 2H13.2C14.7464 2 16 3.2536 16 4.8V7" stroke="#452EB2" stroke-width="1.5" stroke-linecap="round"/>
<path d="M12 15V17" stroke="#452EB2" stroke-width="1.5" stroke-linecap="round"/>
<path d="M20.1219 3.11547L3.00005 20.9996" stroke="#452EB2" stroke-width="1.5" stroke-linecap="round" stroke-linejoin="round"/>
</svg>
