<svg width="24" height="24" viewBox="0 0 24 24" fill="none" xmlns="http://www.w3.org/2000/svg">
<path d="M3 15.2V8.8C3 7.2536 4.2536 6 5.8 6H11.4706C12.0554 6 12.5294 6.47405 12.5294 7.05882C12.5294 7.6436 13.0035 8.11765 13.5882 8.11765H14.6471C15.2318 8.11765 15.7059 7.6436 15.7059 7.05882C15.7059 6.47405 16.1799 6 16.7647 6H18.3529C19.8149 6 21 7.18513 21 8.64706V15.3529C21 16.8149 19.8149 18 18.3529 18H16.7647C16.1799 18 15.7059 17.5259 15.7059 16.9412C15.7059 16.3564 15.2318 15.8824 14.6471 15.8824H14.25H13.5882C13.0035 15.8824 12.5294 16.3564 12.5294 16.9412C12.5294 17.5259 12.0554 18 11.4706 18H5.8C4.2536 18 3 16.7464 3 15.2Z" stroke="#452EB2" stroke-width="1.5" stroke-linecap="round"/>
<path d="M14 10V11" stroke="#452EB2" stroke-width="1.5" stroke-linecap="round"/>
<path d="M14 13V14" stroke="#452EB2" stroke-width="1.5" stroke-linecap="round"/>
</svg>
