<svg width="24" height="24" viewBox="0 0 24 24" fill="none" xmlns="http://www.w3.org/2000/svg">
<path d="M13 8C13 9.65685 11.6569 11 10 11C8.34315 11 7 9.65685 7 8C7 6.34315 8.34315 5 10 5C11.6569 5 13 6.34315 13 8Z" stroke="#452EB2" stroke-width="1.5"/>
<path d="M3 21V17.5589C3 16.4819 3.61649 15.4972 4.62518 15.1197C5.98586 14.6104 7.85601 13.983 10 14C12.0957 14.0165 13.7051 14.6365 15.2416 15.1518C16.3165 15.5123 17 16.5364 17 17.6702V18.5026V19.3351V21" stroke="#452EB2" stroke-width="1.5" stroke-linecap="round"/>
<path d="M15 11C16.6569 11 18 9.65685 18 8C18 6.34315 16.6569 5 15 5" stroke="#452EB2" stroke-width="1.5" stroke-linecap="round"/>
<path d="M15.5 13.5C17.373 13.5 19.0843 14.4965 20.0845 15.2245C20.6967 15.6701 21 16.4007 21 17.158V21" stroke="#452EB2" stroke-width="1.5" stroke-linecap="round"/>
</svg>
